<svg width="48" height="48" viewBox="0 0 48 48" fill="none" xmlns="http://www.w3.org/2000/svg">
<g clip-path="url(#clip0_25_10)">
<path fill-rule="evenodd" clip-rule="evenodd" d="M46.7554 4.10743C47.1026 4.39421 47.3899 4.74657 47.6009 5.14439C47.8119 5.54221 47.9424 5.9777 47.9851 6.42598C48.0278 6.87426 47.9817 7.32655 47.8495 7.75703C47.7174 8.18751 47.5017 8.58774 47.2149 8.93486L19.6491 42.2949L19.6389 42.3017C19.0126 43.0556 18.2259 43.6602 17.3361 44.0712C16.4464 44.4823 15.4761 44.6895 14.496 44.6777C13.5012 44.6664 12.522 44.4297 11.6318 43.9855C10.7417 43.5413 9.96377 42.9012 9.35658 42.1131L9.35315 42.1063L0.720007 31.0114C0.431743 30.6573 0.217107 30.2492 0.0886935 29.8111C-0.0397197 29.3729 -0.0793228 28.9135 -0.0277917 28.4599C0.0237394 28.0062 0.165367 27.5674 0.388779 27.1692C0.612191 26.771 0.912887 26.4214 1.27322 26.141C1.63356 25.8606 2.04627 25.655 2.48715 25.5362C2.92802 25.4175 3.38817 25.388 3.8406 25.4495C4.29303 25.511 4.72862 25.6622 5.12181 25.8943C5.515 26.1264 5.85787 26.4347 6.13029 26.8011L14.5783 37.6594L41.9246 4.56686C42.2114 4.21968 42.5637 3.93239 42.9615 3.7214C43.3594 3.51042 43.7948 3.37986 44.2431 3.3372C44.6914 3.29454 45.1437 3.3406 45.5742 3.47276C46.0047 3.60491 46.4049 3.82058 46.752 4.10743H46.7554Z" fill="#1BA840"/>
</g>
<defs>
<clipPath id="clip0_25_10">
<rect width="48" height="48" fill="white"/>
</clipPath>
</defs>
</svg>
