<svg width="32" height="44" viewBox="0 0 32 44" fill="none" xmlns="http://www.w3.org/2000/svg">
<path d="M17.186 42.516L17.164 42.52L17.022 42.59L16.982 42.598L16.954 42.59L16.812 42.52C16.7907 42.5133 16.7747 42.5167 16.764 42.53L16.756 42.55L16.722 43.406L16.732 43.446L16.752 43.472L16.96 43.62L16.99 43.628L17.014 43.62L17.222 43.472L17.246 43.44L17.254 43.406L17.22 42.552C17.2147 42.5307 17.2033 42.5187 17.186 42.516ZM17.716 42.29L17.69 42.294L17.32 42.48L17.3 42.5L17.294 42.522L17.33 43.382L17.34 43.406L17.356 43.42L17.758 43.606C17.7833 43.6127 17.8027 43.6073 17.816 43.59L17.824 43.562L17.756 42.334C17.7493 42.31 17.736 42.2953 17.716 42.29ZM16.286 42.294C16.2772 42.2887 16.2667 42.2869 16.2566 42.2892C16.2465 42.2914 16.2377 42.2974 16.232 42.306L16.22 42.334L16.152 43.562C16.1533 43.586 16.1647 43.602 16.186 43.61L16.216 43.606L16.618 43.42L16.638 43.404L16.646 43.382L16.68 42.522L16.674 42.498L16.654 42.478L16.286 42.294Z" fill="black" fill-opacity="0.5"/>
<path d="M6 2V4C6 5.06087 6.42143 6.07828 7.17157 6.82843C7.92172 7.57857 8.93913 8 10 8H22C23.0609 8 24.0783 7.57857 24.8284 6.82843C25.5786 6.07828 26 5.06087 26 4V2H28C29.0609 2 30.0783 2.42143 30.8284 3.17157C31.5786 3.92172 32 4.93913 32 6V28C32 31.1826 30.7357 34.2348 28.4853 36.4853C26.2348 38.7357 23.1826 40 20 40H4C2.93913 40 1.92172 39.5786 1.17157 38.8284C0.421427 38.0783 0 37.0609 0 36V6C0 4.93913 0.421427 3.92172 1.17157 3.17157C1.92172 2.42143 2.93913 2 4 2H6ZM16 24H10C9.46957 24 8.96086 24.2107 8.58579 24.5858C8.21071 24.9609 8 25.4696 8 26C8 26.5304 8.21071 27.0391 8.58579 27.4142C8.96086 27.7893 9.46957 28 10 28H16C16.5304 28 17.0391 27.7893 17.4142 27.4142C17.7893 27.0391 18 26.5304 18 26C18 25.4696 17.7893 24.9609 17.4142 24.5858C17.0391 24.2107 16.5304 24 16 24ZM22 16H10C9.49024 16.0006 8.99994 16.1958 8.62926 16.5457C8.25859 16.8956 8.03553 17.3739 8.00566 17.8828C7.97578 18.3917 8.14135 18.8928 8.46853 19.2837C8.79571 19.6746 9.25981 19.9258 9.766 19.986L10 20H22C22.5304 20 23.0391 19.7893 23.4142 19.4142C23.7893 19.0391 24 18.5304 24 18C24 17.4696 23.7893 16.9609 23.4142 16.5858C23.0391 16.2107 22.5304 16 22 16ZM20 0C20.5098 0.000565415 21.0001 0.195758 21.3707 0.545697C21.7414 0.895635 21.9645 1.37391 21.9943 1.88279C22.0242 2.39167 21.8587 2.89276 21.5315 3.28367C21.2043 3.67457 20.7402 3.92579 20.234 3.986L20 4H12C11.4902 3.99943 10.9999 3.80424 10.6293 3.4543C10.2586 3.10436 10.0355 2.62609 10.0057 2.11721C9.97578 1.60833 10.1413 1.10724 10.4685 0.716335C10.7957 0.325429 11.2598 0.0742072 11.766 0.0139999L12 0H20Z" fill="black" fill-opacity="0.5"/>
</svg>
