<svg width="42" height="34" viewBox="0 0 42 34" fill="none" xmlns="http://www.w3.org/2000/svg">
<path d="M0 2C0 0.895431 0.895431 0 2 0H24C25.1046 0 26 0.895431 26 2V2C26 3.10457 25.1046 4 24 4H2C0.89543 4 0 3.10457 0 2V2ZM0 16C0 14.8954 0.895431 14 2 14H24C25.1046 14 26 14.8954 26 16V16C26 17.1046 25.1046 18 24 18H2C0.89543 18 0 17.1046 0 16V16ZM2 28V28C0.895431 28 0 28.8954 0 30V30C0 31.1046 0.895431 32 2 32H20C21.1046 32 22 31.1046 22 30V30C22 28.8954 21.1046 28 20 28H2ZM32.586 33.414C33.3669 34.1949 34.6331 34.1949 35.414 33.414V33.414L41.414 27.414V27.414C42.1949 26.6331 42.1949 25.3669 41.414 24.586V24.586C40.6331 23.8051 39.3669 23.8051 38.586 24.586V24.586V24.586C37.6317 25.5403 36 24.8644 36 23.5148V2C36 0.895431 35.1046 0 34 0V0C32.8954 0 32 0.895431 32 2V23.5148C32 24.8644 30.3683 25.5403 29.414 24.586V24.586V24.586C28.6331 23.8051 27.3669 23.8051 26.586 24.586V24.586C25.8051 25.3669 25.8051 26.6331 26.586 27.414V27.414L32.586 33.414V33.414Z" fill="black"/>
</svg>
