<svg width="42" height="35" viewBox="0 0 42 35" fill="none" xmlns="http://www.w3.org/2000/svg">
<path d="M0 32.828C0 33.9326 0.895431 34.828 2 34.828H24C25.1046 34.828 26 33.9326 26 32.828V32.828C26 31.7234 25.1046 30.828 24 30.828H2C0.89543 30.828 0 31.7234 0 32.828V32.828ZM0 18.828C0 19.9326 0.895431 20.828 2 20.828H24C25.1046 20.828 26 19.9326 26 18.828V18.828C26 17.7234 25.1046 16.828 24 16.828H2C0.89543 16.828 0 17.7234 0 18.828V18.828ZM2 6.828V6.828C0.895431 6.828 0 5.93257 0 4.828V4.828C0 3.72343 0.895431 2.828 2 2.828H20C21.1046 2.828 22 3.72343 22 4.828V4.828C22 5.93257 21.1046 6.828 20 6.828H2ZM32.586 1.414C33.3669 0.633071 34.6331 0.633071 35.414 1.414V1.414L41.414 7.414V7.414C42.1949 8.19493 42.1949 9.46107 41.414 10.242V10.242C40.6331 11.0229 39.3669 11.0229 38.586 10.242V10.242V10.242C37.6317 9.28771 36 9.96358 36 11.3132V32.828C36 33.9326 35.1046 34.828 34 34.828V34.828C32.8954 34.828 32 33.9326 32 32.828V11.3132C32 9.96358 30.3683 9.28771 29.414 10.242V10.242V10.242C28.6331 11.0229 27.3669 11.0229 26.586 10.242V10.242C25.8051 9.46107 25.8051 8.19493 26.586 7.414V7.414L32.586 1.414V1.414Z" fill="black"/>
</svg>
