<svg width="36" height="36" viewBox="0 0 36 36" fill="none" xmlns="http://www.w3.org/2000/svg">
<path d="M21.8926 0.76601C23.0508 -0.00120067 25.0131 -0.548945 26.4941 0.931993L35.0643 9.5041C36.5508 10.9869 36.0012 12.9492 35.2322 14.1055C34.8158 14.7325 34.2738 15.2663 33.6406 15.6731C33.0246 16.066 32.2463 16.3629 31.4072 16.3186C31.0012 16.2899 30.5964 16.2462 30.1937 16.1877L30.0682 16.1692C29.6356 16.1072 29.2006 16.0623 28.7644 16.0346C27.8348 15.9885 27.4771 16.1453 27.3627 16.2559L22.7705 20.85C22.623 20.9975 22.4385 21.3258 22.2984 21.9565C22.1638 22.5651 22.1047 23.3139 22.09 24.1438C22.0771 24.9405 22.1047 25.7557 22.1342 26.5413L22.1361 26.628C22.1638 27.4081 22.1914 28.2049 22.1527 28.8301C22.0328 30.7315 20.5519 32.1313 19.0949 32.7786C17.6379 33.4241 15.5595 33.5846 14.1154 32.1387L9.96583 27.9891L2.39515 35.5598C2.26852 35.6957 2.11582 35.8047 1.94615 35.8803C1.77648 35.9559 1.59332 35.9965 1.40759 35.9998C1.22187 36.0031 1.03739 35.9689 0.865161 35.8993C0.69293 35.8298 0.536474 35.7262 0.405128 35.5949C0.273782 35.4635 0.170237 35.3071 0.10067 35.1348C0.0311026 34.9626 -0.00306158 34.7781 0.000215264 34.5924C0.00349211 34.4067 0.0441433 34.2235 0.119743 34.0539C0.195343 33.8842 0.304342 33.7315 0.44024 33.6048L8.00907 26.0342L3.85949 21.8846C2.41544 20.4387 2.57405 18.3621 3.22138 16.9051C3.86687 15.4481 5.26851 13.9672 7.16809 13.8473C7.79514 13.8086 8.59186 13.8363 9.37198 13.8639L9.45866 13.8658C10.2443 13.8934 11.0595 13.9229 11.8562 13.91C12.6861 13.8953 13.4349 13.8363 14.0435 13.7016C14.6742 13.5615 15.0025 13.3752 15.15 13.2277L19.7422 8.63546C19.8547 8.52296 20.0115 8.16333 19.9636 7.23382C19.9359 6.79759 19.891 6.36262 19.8289 5.92993L19.8123 5.80452C19.7538 5.40176 19.7101 4.99697 19.6814 4.591C19.6353 3.75186 19.9322 2.97359 20.3232 2.3576C20.7215 1.73056 21.273 1.17728 21.8926 0.76601Z" fill="#D01111"/>
</svg>
