<svg width="30" height="36" viewBox="0 0 30 36" fill="none" xmlns="http://www.w3.org/2000/svg">
<path fill-rule="evenodd" clip-rule="evenodd" d="M24.0888 5.20406e-07C23.2243 -0.00029396 22.3703 0.192043 21.587 0.563442C20.8037 0.934841 20.1101 1.47626 19.5553 2.14949C19.0006 2.82273 18.598 3.61138 18.3761 4.45983C18.1541 5.30827 18.1183 6.19582 18.2709 7.05988L9.67142 13.1745L9.54779 13.2724C8.67536 12.5798 7.62884 12.1502 6.52757 12.0324C5.42629 11.9146 4.31459 12.1135 3.31924 12.6063C2.32388 13.0991 1.48493 13.866 0.898056 14.8196C0.31118 15.7732 0 16.8751 0 17.9996C0 19.1241 0.31118 20.2259 0.898056 21.1795C1.48493 22.1331 2.32388 22.9 3.31924 23.3928C4.31459 23.8856 5.42629 24.0845 6.52757 23.9667C7.62884 23.849 8.67536 23.4193 9.54779 22.7268L9.67142 22.8265L18.2709 28.9411C18.2103 29.2857 18.18 29.639 18.18 30.0008C18.1803 31.4233 18.6781 32.7994 19.5849 33.8837C20.4916 34.9679 21.7481 35.6898 23.1304 35.9205C24.5126 36.1513 25.9306 35.8758 27.1314 35.1433C28.3322 34.4108 29.2377 33.269 29.6863 31.9214C30.1349 30.5739 30.0975 29.1083 29.5807 27.7862C29.0639 26.4641 28.1014 25.3714 26.8648 24.7031C25.6283 24.0348 24.1981 23.8344 22.8295 24.1375C21.4609 24.4407 20.2428 25.2277 19.3927 26.3583L11.2495 20.5667C11.6131 19.7876 11.8168 18.9181 11.8168 17.9986C11.8168 17.0792 11.6131 16.2078 11.2495 15.4306L19.3945 9.64088C20.0044 10.4522 20.8081 11.0922 21.7294 11.5002C22.6508 11.9081 23.6594 12.0707 24.6599 11.9725C25.6604 11.8742 26.6197 11.5184 27.4471 10.9387C28.2744 10.359 28.9424 9.57458 29.3879 8.6596C29.8334 7.74462 30.0417 6.72935 29.9931 5.70983C29.9444 4.69031 29.6405 3.70024 29.11 2.83327C28.5794 1.96631 27.8399 1.25111 26.9612 0.75533C26.0826 0.259549 25.0939 -0.000424543 24.0888 5.20406e-07ZM20.9071 6.00016C20.9071 5.14329 21.2424 4.32151 21.839 3.7156C22.4357 3.1097 23.245 2.76931 24.0888 2.76931C24.9326 2.76931 25.7419 3.1097 26.3385 3.7156C26.9352 4.32151 27.2704 5.14329 27.2704 6.00016C27.2704 6.85704 26.9352 7.67882 26.3385 8.28472C25.7419 8.89063 24.9326 9.23102 24.0888 9.23102C23.245 9.23102 22.4357 8.89063 21.839 8.28472C21.2424 7.67882 20.9071 6.85704 20.9071 6.00016ZM5.908 14.7696C5.06418 14.7696 4.25491 15.11 3.65824 15.7159C3.06157 16.3218 2.72636 17.1436 2.72636 18.0005C2.72636 18.8574 3.06157 19.6791 3.65824 20.2851C4.25491 20.891 5.06418 21.2313 5.908 21.2313C6.75182 21.2313 7.56108 20.891 8.15776 20.2851C8.75443 19.6791 9.08964 18.8574 9.08964 18.0005C9.08964 17.1436 8.75443 16.3218 8.15776 15.7159C7.56108 15.11 6.75182 14.7696 5.908 14.7696ZM24.0888 26.77C23.245 26.77 22.4357 27.1104 21.839 27.7163C21.2424 28.3222 20.9071 29.1439 20.9071 30.0008C20.9071 30.8577 21.2424 31.6795 21.839 32.2854C22.4357 32.8913 23.245 33.2317 24.0888 33.2317C24.9326 33.2317 25.7419 32.8913 26.3385 32.2854C26.9352 31.6795 27.2704 30.8577 27.2704 30.0008C27.2704 29.1439 26.9352 28.3222 26.3385 27.7163C25.7419 27.1104 24.9326 26.77 24.0888 26.77Z" fill="black" fill-opacity="0.5"/>
</svg>
