<svg width="40" height="40" viewBox="0 0 40 40" fill="none" xmlns="http://www.w3.org/2000/svg">
<path d="M2 20C2 24.7739 3.89642 29.3523 7.27208 32.7279C10.6477 36.1036 15.2261 38 20 38C24.7739 38 29.3523 36.1036 32.7279 32.7279C36.1036 29.3523 38 24.7739 38 20C38 15.2261 36.1036 10.6477 32.7279 7.27208C29.3523 3.89642 24.7739 2 20 2C15.2261 2 10.6477 3.89642 7.27208 7.27208C3.89642 10.6477 2 15.2261 2 20Z" fill="#8FBFFA"/>
<path d="M2 20C2 24.7739 3.89642 29.3523 7.27208 32.7279C10.6477 36.1036 15.2261 38 20 38C24.7739 38 29.3523 36.1036 32.7279 32.7279C36.1036 29.3523 38 24.7739 38 20C38 15.2261 36.1036 10.6477 32.7279 7.27208C29.3523 3.89642 24.7739 2 20 2C15.2261 2 10.6477 3.89642 7.27208 7.27208C3.89642 10.6477 2 15.2261 2 20Z" stroke="#2859C5" stroke-width="3" stroke-linejoin="round"/>
<path d="M12.2857 20C12.2857 15.2261 13.0985 10.6477 14.5452 7.27208C15.9919 3.89642 17.954 2 20 2C22.0459 2 24.0081 3.89642 25.4548 7.27208C26.9015 10.6477 27.7143 15.2261 27.7143 20C27.7143 24.7739 26.9015 29.3523 25.4548 32.7279C24.0081 36.1036 22.0459 38 20 38C17.954 38 15.9919 36.1036 14.5452 32.7279C13.0985 29.3523 12.2857 24.7739 12.2857 20Z" stroke="#2859C5" stroke-width="3" stroke-linejoin="round"/>
<path d="M3.28571 26H36.7143M3.28571 14H36.7143" stroke="#2859C5" stroke-width="3" stroke-linecap="round" stroke-linejoin="round"/>
</svg>
